<svg xmlns="http://www.w3.org/2000/svg" width="101.566" height="22.123" viewBox="0 0 89.375 19.468">
  <defs>
    <style>
      .cls-1 {
        fill-rule: evenodd;
      }
    </style>
  </defs>
  <path id="二手宝" class="cls-1" d="M148.56,906.275h-20.7v2.336h19.872ZM126.16,918.5v2.368h23.264l0.832-2.368h-24.1Zm46.688-6.848h10.336l0.768-1.568h-11.1v-4.16l10.528-.544v-1.536L157.1,905.251v1.5l12-.64v3.968H156.5v1.568H169.1V915.2H156.5v1.568H169.1v5.088h-3.392l0.8,1.44h6.336v-6.528h10.336l0.768-1.568h-11.1v-3.552Zm42.688,9.984h-11.52v-4.96h8.736l0.832-1.5h-9.568v-4.256h9.024l0.832-1.5h-22.88v1.5h9.376v4.256H190.7v1.5h9.664v4.96h-11.04v1.5H214.7ZM200.4,903.971v1.248H188.88V908.2h3.584v-1.536h18.592l0.8-1.344v2.88h3.584v-2.976H203.92v-1.248H200.4Zm13.472,17.376-1.568-3.616h-3.872l1.632,3.616h3.808Z" transform="translate(-126.156 -903.844)"/>
</svg>
